<svg width="30" height="31" viewBox="0 0 30 31" fill="none" xmlns="http://www.w3.org/2000/svg">
<path d="M11 16.4579L14.0309 18.9616C14.5267 19.3712 15.2746 19.2131 15.5622 18.6379L19 11.7622" stroke="#B4ECD2" stroke-width="2" stroke-linecap="round"/>
<path d="M15.0005 0.76416C6.71458 0.76416 0 7.47874 0 15.7647C0 24.0476 6.71458 30.7602 15.0005 30.7602C23.2844 30.7602 30 24.0466 30 15.7647C30.001 7.47874 23.2844 0.76416 15.0005 0.76416ZM15.0005 28.2574C8.10023 28.2574 2.50574 22.6659 2.50574 15.7647C2.50574 8.86639 8.10023 3.2679 15.0005 3.2679C21.8998 3.2679 27.4933 8.86539 27.4933 15.7647C27.4943 22.6659 21.8998 28.2574 15.0005 28.2574Z" fill="#B4ECD2"/>
</svg>
